<svg width="56" height="56" viewBox="0 0 56 56" fill="none" xmlns="http://www.w3.org/2000/svg">
<rect width="56" height="56" rx="16" fill="#F5F3FE"/>
<path fill-rule="evenodd" clip-rule="evenodd" d="M28 19.75C25.6528 19.75 23.75 21.6528 23.75 24C23.75 26.3472 25.6528 28.25 28 28.25C30.3472 28.25 32.25 26.3472 32.25 24C32.25 21.6528 30.3472 19.75 28 19.75ZM22.25 24C22.25 20.8244 24.8244 18.25 28 18.25C31.1756 18.25 33.75 20.8244 33.75 24C33.75 26.9214 31.5713 29.334 28.75 29.7015V37C28.75 37.4142 28.4142 37.75 28 37.75C27.5858 37.75 27.25 37.4142 27.25 37V29.7015C24.4287 29.334 22.25 26.9214 22.25 24Z" fill="#7E74F1"/>
</svg>
