<svg width="56" height="56" viewBox="0 0 56 56" fill="none" xmlns="http://www.w3.org/2000/svg">
<rect width="56" height="56" rx="16" fill="#F5F3FE"/>
<path fill-rule="evenodd" clip-rule="evenodd" d="M18.7626 20.7626C19.0784 20.4467 19.517 20.25 20 20.25H36C36.483 20.25 36.9216 20.4467 37.2374 20.7626C37.5533 21.0784 37.75 21.517 37.75 22V34C37.75 34.9665 36.9665 35.75 36 35.75H20C19.0335 35.75 18.25 34.9665 18.25 34V22C18.25 21.517 18.4467 21.0784 18.7626 20.7626ZM20.8107 21.75L27.1161 28.0554L26.6211 28.5504L27.1161 28.0554C27.6043 28.5436 28.3957 28.5436 28.8839 28.0554L29.4142 28.5857L28.8839 28.0554L35.1893 21.75H20.8107ZM36.25 22.8107L29.9445 29.1161C28.8706 30.19 27.1294 30.19 26.0555 29.1161L26.5858 28.5857L26.0555 29.1161L19.75 22.8107V34C19.75 34.1381 19.8619 34.25 20 34.25H36C36.1381 34.25 36.25 34.1381 36.25 34V22.8107Z" fill="#7E74F1"/>
</svg>
